<?xml version="1.0" standalone="no"?><!DOCTYPE svg PUBLIC "-//W3C//DTD SVG 1.1//EN" "http://www.w3.org/Graphics/SVG/1.1/DTD/svg11.dtd"><svg t="1620289126740" class="icon" viewBox="0 0 1024 1024" version="1.1" xmlns="http://www.w3.org/2000/svg" p-id="876" xmlns:xlink="http://www.w3.org/1999/xlink" width="200" height="200"><defs><style type="text/css"></style></defs><path d="M466.855581 197.698959l-3.440427 55.447637h262.61121l0.428333 56.304303H459.979888l-3.440426 58.449409-169.341243-87.250941z" p-id="877"></path><path d="M282.471073 404.860812h265.614702l2.151987-64.036662 178.368922 89.826101-185.249775 94.556687 2.153707-58.449409H275.59366z" p-id="878"></path><path d="M998.812636 657.324484c0-2.114142 0-4.230005-0.510903-5.816042L914.191901 136.9135c-3.173794-19.569147-12.146426-38.608468-24.853642-51.298482a75.759916 75.759916 0 0 0-55.005542-22.74294h-645.750888a82.141908 82.141908 0 0 0-57.119685 23.272766 80.994525 80.994525 0 0 0-22.74294 54.472276L24.631735 648.332928c-0.529826 3.700179-1.057931 6.349307-1.057931 9.521381v216.836333c2.642248 39.124532 27.502771 72.988652 68.227101 83.564524l0.524666 0.531546h2.119302l1.057932 0.509183 1.05277 0.547028h1.059652l0.529825 0.512624h1.582597l5.821202 0.529825 2.643967 0.529826h1.057932l1.059651 0.509183H908.909126c49.709005 0 89.889748-40.700248 89.889748-90.431615V657.324484h0.013762zM165.842328 128.451771c0.529826-2.114142 0.529826-4.228284 0.529826-6.345867 0-1.582596 0.524665-2.642248 1.582596-3.701899 1.061372-1.059651 2.643968-2.112422 4.233445-2.112422h682.77332c0.531546 0 1.04417 0 1.60668 1.05277 2.640527 2.649129 4.231725 6.349307 4.740908 11.107418l69.83206 462.498281c-2.643968-0.531546-4.763271-0.531546-6.877413-0.531546H108.720924c-2.112422 0-4.761551 0-6.873973 0.531546L165.842328 128.451771z m779.540482 752.588179a15.352904 15.352904 0 0 1-15.337423 15.352904H91.799185c-7.405518-0.541867-13.754826-5.289656-14.809316-13.237042v-0.512624h-0.529826V660.513759a15.695227 15.695227 0 0 1 15.862087-14.807596h837.208914a13.366058 13.366058 0 0 1 10.572431 4.764991c2.626766 2.640527 4.763271 6.363069 4.763271 10.046046V881.058872h0.514343l0.001721-0.018922z" p-id="879"></path><path d="M791.363508 784.785412h98.236223v50.240551h-98.236223v-50.240551zM791.363508 707.04209h98.236223v50.256033h-98.236223V707.04209zM627.019485 784.785412h98.236224v50.240551h-98.236224zM627.019485 707.04209h98.236224v50.257753h-98.236224zM455.859977 784.785412h98.256866v50.240551h-98.256866zM455.859977 707.04209h98.256866v50.257753h-98.256866zM291.510794 784.785412h98.241384v50.240551h-98.241384zM291.510794 707.04209h98.241384v50.257753h-98.241384zM153.792234 765.216265c0 18.251464 14.797275 33.05562 33.05562 33.055619 18.253184 0 33.052179-14.800716 33.052179-33.055619 0-18.258344-14.798995-33.05734-33.052179-33.05734-18.258344 0-33.05562 14.798995-33.05562 33.05734z" p-id="880"></path></svg>