<?xml version="1.0" standalone="no"?><!DOCTYPE svg PUBLIC "-//W3C//DTD SVG 1.1//EN"
        "http://www.w3.org/Graphics/SVG/1.1/DTD/svg11.dtd">
<svg t="1620288729837" class="icon" viewBox="0 0 1024 1024" version="1.1" xmlns="http://www.w3.org/2000/svg" p-id="890"
     xmlns:xlink="http://www.w3.org/1999/xlink" width="200" height="200">
    <defs>
        <style type="text/css"></style>
    </defs>
    <path d="M501.292532 293.526884c-32.73222 0-59.447133 26.714913-59.447133 59.070406 0 32.73566 26.714913 59.452293 59.447133 59.452294 32.358933 0 59.450573-27.09336 59.450573-59.452294-0.00172-32.730499-27.09164-59.070406-59.450573-59.070406z m0.146218 77.650431c-10.508783 0-18.678077-8.176174-18.678076-18.390801 0-10.216347 8.461729-18.38736 18.678076-18.387361 10.219787 0 18.389081 8.46517 18.389081 18.387361 0 9.923911-8.171013 18.390801-18.389081 18.390801zM502.135437 282.821997c14.171118 0 25.701708-10.180223 25.701707-22.693055V167.189255c0-12.301246-11.53059-22.309447-25.701707-22.309447-14.169397 0-25.696547 10.008201-25.696547 22.309447v92.850236c-0.178902 5.422112 1.904276 10.673924 5.876248 14.798995 4.883686 5.074629 12.108582 7.98351 19.820299 7.983511zM328.442055 281.027814l80.55587 46.297822a20.797379 20.797379 0 0 0 10.353964 2.707616h0.001721c8.657834 0 17.214175-5.16064 22.404058-13.593126 6.987507-12.106862 3.927247-27.633507-6.741516-33.939809l-80.836265-46.246216c-2.970808-1.754618-6.428437-2.681813-9.999601-2.681813-8.779969 0-17.597783 5.456517-22.465986 13.899324-7.01847 12.160188-4.023579 27.200013 6.727755 33.556202zM417.913791 371.966893c-3.682977 0-7.286824 0.935796-10.458897 2.729978l-80.194626 46.304703c-10.539747 6.235773-13.366058 21.273878-6.338986 33.449549 4.802836 8.657834 13.230161 14.036941 21.992927 14.036941a19.868464 19.868464 0 0 0 10.082171-2.714497l80.488782-46.266858c4.923251-2.783305 8.470331-7.455405 9.99444-13.161353 1.792462-6.722594 0.605515-14.317336-3.228841-20.785338-4.83724-8.38432-13.397022-13.593126-22.33697-13.593125zM499.885398 421.436788c-14.171118 0-25.699987 10.180223-25.699988 22.691334v92.936247c0 12.511112 11.28976 22.312887 25.699988 22.312887 14.167677 0 25.696547-10.009921 25.696546-22.312887v-92.936247c-0.00172-12.511112-11.52887-22.691334-25.696546-22.691334zM673.5805 422.854244l-80.557591-46.301263a20.797379 20.797379 0 0 0-10.353964-2.707615c-8.661274 0-17.219336 5.16236-22.33009 13.474431l-0.111814 0.190943c-6.889454 12.395857-3.87392 27.57158 6.7742 33.8624l80.46814 46.251376c2.969088 1.756338 6.426717 2.683533 9.99788 2.683533h0.001721c8.779969 0 17.599503-5.456517 22.507271-13.969852 6.968584-12.540355 4.183559-27.234418-6.395753-33.483953zM583.952224 332.224804c0.00172 0 0.00172 0 0 0 3.669215 0 7.101041-0.891071 10.249031-2.671492l80.557591-46.676269c10.546628-6.232333 13.372939-21.273878 6.345867-33.458149-4.734027-8.523657-13.486473-14.03178-22.295685-14.03178-3.638251 0-7.171569 0.951278-10.175062 2.728258l-80.473301 46.629823c-4.923251 2.781585-8.473771 7.455405-9.99788 13.164793-1.792462 6.726034-0.605515 14.319056 3.275286 20.859307 4.906048 8.174454 13.744505 13.455509 22.514153 13.455509z"
          p-id="891"></path>
    <path d="M998.812636 657.324484c0-2.114142 0-4.230005-0.510903-5.816042L914.191901 136.9135c-3.175514-19.569147-12.148147-38.608468-24.853642-51.298482a75.761636 75.761636 0 0 0-55.007262-22.74294h-645.750889a82.141908 82.141908 0 0 0-57.119684 23.272766A80.994525 80.994525 0 0 0 108.717484 140.61712L24.631735 648.332928c-0.529826 3.700179-1.057931 6.349307-1.057931 9.521381v216.836333c2.642248 39.124532 27.502771 72.990373 68.227101 83.564524l0.524666 0.533266h2.119302l1.057932 0.509183 1.05277 0.545308h1.059652l0.529825 0.514344h1.582597l5.821202 0.529826 2.643967 0.529825h1.057932l1.059651 0.510904H908.909126c49.707285 0 89.889748-40.700248 89.889748-90.431616V657.324484h0.013762zM165.842328 128.451771c0.529826-2.114142 0.529826-4.228284 0.529826-6.345867 0-1.582596 0.524665-2.642248 1.582596-3.701899 1.061372-1.059651 2.643968-2.112422 4.233445-2.112422h682.77332c0.533266 0 1.04417 0 1.6084 1.05277 2.638807 2.649129 4.231725 6.349307 4.740908 11.107418l69.832061 462.498281c-2.643968-0.533266-4.763271-0.533266-6.877413-0.533266H108.720924c-2.112422 0-4.761551 0-6.873973 0.533266L165.842328 128.451771z m779.540482 752.588179a15.352904 15.352904 0 0 1-15.337423 15.352904H91.799185c-7.405518-0.540147-13.754826-5.289656-14.809316-13.235322v-0.514344h-0.529826V660.513759a15.691786 15.691786 0 0 1 15.862087-14.805876h837.208914a13.366058 13.366058 0 0 1 10.572431 4.764991c2.626766 2.640527 4.764991 6.363069 4.764991 10.046046V881.058872h0.514344v-0.018922z"
          p-id="892"></path>
    <path d="M791.363508 784.785412h98.236223v50.240551h-98.236223zM791.363508 707.04209h98.236223v50.256033h-98.236223zM627.019485 784.785412h98.236224v50.240551h-98.236224zM627.019485 707.04209h98.236224v50.259473h-98.236224zM455.859977 784.785412h98.256866v50.240551h-98.256866zM455.859977 707.04209h98.256866v50.259473h-98.256866zM291.510794 784.785412h98.241384v50.240551h-98.241384zM291.510794 707.04209h98.241384v50.259473h-98.241384zM153.792234 765.216265c0 18.251464 14.797275 33.05562 33.05562 33.055619 18.253184 0 33.052179-14.800716 33.052179-33.055619 0-18.258344-14.798995-33.05734-33.052179-33.05734-18.258344 0-33.05562 14.798995-33.05562 33.05734z"
          p-id="893"></path>
</svg>